<svg width="200" height="50" viewBox="0 0 200 50" fill="none" xmlns="http://www.w3.org/2000/svg">
<path d="M25 22L29 26L33 30L29 34L25 38L21 34L17 30L21 26L25 22Z" stroke="#29ABE2" stroke-width="2" stroke-linecap="round" stroke-linejoin="round"/>
<path d="M25 35C30.5228 35 35 30.5228 35 25C35 19.4772 30.5228 15 25 15C19.4772 15 15 19.4772 15 25C15 30.5228 19.4772 35 25 35Z" stroke="#29ABE2" stroke-width="2" stroke-linecap="round" stroke-linejoin="round"/>
<path d="M25 31C28.3137 31 31 28.3137 31 25C31 21.6863 28.3137 19 25 19C21.6863 19 19 21.6863 19 25C19 28.3137 21.6863 31 25 31Z" fill="#FF8C00"/>
<path d="M26.25 23.125C26.25 22.5037 25.7463 22 25.125 22H24.375C23.7537 22 23.25 22.5037 23.25 23.125V23.75C23.25 23.9489 23.4149 24.1434 23.5938 24.25V26.25C23.5938 26.6642 23.9296 27 24.3438 27H25.6562C26.0704 27 26.4062 26.6642 26.4062 26.25V24.25C26.5851 24.1434 26.75 23.9489 26.75 23.75V23.125H26.25Z" fill="#0D202B"/>
<path d="M53.155 20.332H57.905V38H53.155V20.332Z" fill="#29ABE2"/>
<path d="M55.51 15C56.9114 15 58.06 16.1486 58.06 17.55C58.06 18.9514 56.9114 20.1 55.51 20.1C54.1086 20.1 52.96 18.9514 52.96 17.55C52.96 16.1486 54.1086 15 55.51 15Z" fill="#29ABE2"/>
<path d="M69.0738 20.332C72.8288 20.332 75.5538 22.78 75.5538 26.602C75.5538 30.388 72.8838 32.836 69.0738 32.836H65.8138V38H61.0638V20.332H69.0738ZM69.0438 24.226C67.6538 24.226 66.8088 25.264 66.8088 26.584C66.8088 27.886 67.6538 28.942 69.0438 28.942H65.8138V24.226H69.0438Z" fill="#29ABE2"/>
<path d="M86.1132 20.332C89.8682 20.332 92.5932 22.78 92.5932 26.602C92.5932 30.388 89.9232 32.836 86.1132 32.836H82.8532V38H78.1032V20.332H86.1132ZM86.0832 24.226C84.6932 24.226 83.8482 25.264 83.8482 26.584C83.8482 27.886 84.6932 28.942 86.0832 28.942H82.8532V24.226H86.0832Z" fill="#29ABE2"/>
<path d="M106.671 20.332L111.421 38H106.211L105.151 33.616H100.171L99.1213 38H93.9113L98.6613 20.332H106.671ZM102.661 29.98L101.071 23.488L99.4813 29.98H102.661Z" fill="#29ABE2"/>
<path d="M113.626 20.332H123.366V23.908H118.376V27.466H122.586V31.042H118.376V34.426H123.546V38H113.626V20.332Z" fill="#29ABE2"/>
<path d="M136.213 20.332C140.233 20.332 142.493 23.116 142.493 26.938V38H137.743V27.166C137.743 25.564 136.953 24.472 135.533 24.472C134.113 24.472 133.303 25.564 133.303 27.166V38H128.553V20.332H133.303V22.6C134.023 21.256 135.033 20.332 136.213 20.332Z" fill="#29ABE2"/>
<path d="M149.332 20.332H154.082V38H149.332V20.332Z" fill="white"/>
<path d="M151.692 15C153.093 15 154.242 16.1486 154.242 17.55C154.242 18.9514 153.093 20.1 151.692 20.1C150.29 20.1 149.142 18.9514 149.142 17.55C149.142 16.1486 150.29 15 151.692 15Z" fill="white"/>
<path d="M157.065 20.332H161.815V23.592L161.725 25.828C162.735 24.16 164.285 23.488 165.765 23.488C168.325 23.488 169.585 25.474 169.585 28.24V38H164.835V28.744C164.835 27.274 164.115 26.428 162.905 26.428C161.725 26.428 160.775 27.274 160.775 28.744V38H156.025V20.332H157.065Z" fill="white"/>
<path d="M172.935 20.332H177.685V38H172.935V20.332Z" fill="white"/>
<path d="M187.354 20.332L191.014 31.468L194.674 20.332H199.114L193.074 38H188.934L182.894 20.332H187.354Z" fill="white"/>
</svg>
